<svg width="97" height="97" viewBox="0 0 97 97" fill="none" xmlns="http://www.w3.org/2000/svg">
<path d="M97 48.5C97 75.2858 75.2858 97 48.5 97C21.7142 97 0 75.2858 0 48.5C0 21.7142 21.7142 0 48.5 0C75.2858 0 97 21.7142 97 48.5Z" fill="#A13660"/>
<path fill-rule="evenodd" clip-rule="evenodd" d="M48.5 94.6341C73.9792 94.6341 94.6341 73.9792 94.6341 48.5C94.6341 23.0208 73.9792 2.36585 48.5 2.36585C23.0208 2.36585 2.36585 23.0208 2.36585 48.5C2.36585 73.9792 23.0208 94.6341 48.5 94.6341ZM48.5 97C75.2858 97 97 75.2858 97 48.5C97 21.7142 75.2858 0 48.5 0C21.7142 0 0 21.7142 0 48.5C0 75.2858 21.7142 97 48.5 97Z" fill="#F5F5F5"/>
<path fill-rule="evenodd" clip-rule="evenodd" d="M44.9468 58.1694L44.9468 33.125L49.6785 33.125L49.6785 58.1694L60.696 47.152C61.6199 46.2281 63.1179 46.2281 64.0418 47.152C64.9657 48.0759 64.9657 49.5739 64.0418 50.4978L48.9856 65.554C48.0617 66.4779 46.5637 66.4779 45.6398 65.554L30.5836 50.4978C29.6596 49.5739 29.6596 48.0759 30.5836 47.152C31.5075 46.2281 33.0055 46.2281 33.9294 47.152L44.9468 58.1694Z" fill="#F5F5F5"/>
</svg>
