<svg width="60" height="60" viewBox="0 0 60 60" fill="none" xmlns="http://www.w3.org/2000/svg">
<g clip-path="url(#clip0_333_2494)">
<path d="M57.3715 23.997C56.9027 23.5284 56.2669 23.2651 55.604 23.2651C54.9411 23.2651 54.3053 23.5284 53.8365 23.997L26.6065 51.3445C25.4458 52.5054 24.0678 53.4263 22.5512 54.0547C21.0346 54.683 19.409 55.0064 17.7674 55.0066C14.452 55.0068 11.2723 53.69 8.92777 51.3458C6.58325 49.0016 5.26599 45.8221 5.26575 42.5067C5.26552 39.1913 6.58234 36.0116 8.92652 33.667L35.299 7.18705C36.7092 5.79928 38.6107 5.02497 40.5892 5.03279C42.5678 5.04062 44.4631 5.82993 45.8623 7.22881C47.2615 8.62769 48.0512 10.5228 48.0595 12.5013C48.0678 14.4798 47.294 16.3815 45.9065 17.792L19.534 44.272C19.0584 44.7277 18.4252 44.9821 17.7665 44.9821C17.1079 44.9821 16.4746 44.7277 15.999 44.272C15.5303 43.8032 15.2671 43.1675 15.2671 42.5045C15.2671 41.8416 15.5303 41.2059 15.999 40.737L39.479 17.1495C39.9344 16.678 40.1864 16.0465 40.1807 15.391C40.175 14.7356 39.9121 14.1085 39.4486 13.645C38.985 13.1815 38.358 12.9186 37.7025 12.9129C37.047 12.9072 36.4155 13.1592 35.944 13.6145L12.464 37.202C11.7674 37.8985 11.2149 38.7254 10.8379 39.6354C10.4609 40.5454 10.2669 41.5208 10.2669 42.5058C10.2669 43.4908 10.4609 44.4662 10.8379 45.3762C11.2149 46.2862 11.7674 47.1131 12.464 47.8095C13.8931 49.1732 15.7925 49.9341 17.7678 49.9341C19.7431 49.9341 21.6425 49.1732 23.0715 47.8095L49.4415 21.327C51.7365 18.9728 53.0116 15.8092 52.9905 12.5215C52.9694 9.23377 51.6539 6.08674 49.329 3.7621C47.004 1.43746 43.8568 0.122408 40.5691 0.101808C37.2814 0.0812083 34.1179 1.35672 31.764 3.65205L5.39152 30.132C2.10946 33.4141 0.265625 37.8655 0.265625 42.507C0.265625 47.1486 2.10946 51.6 5.39152 54.882C8.67357 58.1641 13.125 60.0079 17.7665 60.0079C22.408 60.0079 26.8595 58.1641 30.1415 54.882L57.3715 27.542C57.6051 27.3097 57.7904 27.0335 57.9169 26.7293C58.0434 26.4252 58.1085 26.099 58.1085 25.7695C58.1085 25.4401 58.0434 25.1139 57.9169 24.8097C57.7904 24.5056 57.6051 24.2294 57.3715 23.997V23.997Z" fill="#A13660" style="fill:#A13660;fill:color(display-p3 0.6314 0.2118 0.3765);fill-opacity:1;"/>
</g>
<defs>
<clipPath id="clip0_333_2494">
<rect width="60" height="60" fill="white" style="fill:white;fill-opacity:1;"/>
</clipPath>
</defs>
</svg>
