<svg width="60" height="60" viewBox="0 0 60 60" fill="none" xmlns="http://www.w3.org/2000/svg">
<g clip-path="url(#clip0_333_2351)">
<path d="M46.6401 2.32225L16.1601 32.8023C14.9959 33.9601 14.073 35.3374 13.4448 36.8544C12.8165 38.3713 12.4954 39.9978 12.5 41.6398V44.9973C12.5 45.6603 12.7634 46.2962 13.2323 46.765C13.7011 47.2339 14.337 47.4973 15 47.4973H18.3575C19.9995 47.5019 21.626 47.1808 23.1429 46.5525C24.6599 45.9243 26.0372 45.0014 27.1951 43.8372L57.675 13.3572C59.136 11.8927 59.9565 9.90844 59.9565 7.83975C59.9565 5.77106 59.136 3.78682 57.675 2.32225C56.1892 0.901985 54.213 0.109375 52.1576 0.109375C50.1021 0.109375 48.1259 0.901985 46.6401 2.32225V2.32225ZM54.14 9.82225L23.66 40.3023C22.2504 41.7033 20.3451 42.492 18.3575 42.4973H17.5V41.6398C17.5053 39.6522 18.294 37.7469 19.695 36.3373L50.175 5.85725C50.709 5.34714 51.4191 5.06248 52.1576 5.06248C52.896 5.06248 53.6061 5.34714 54.14 5.85725C54.6649 6.38354 54.9596 7.09648 54.9596 7.83975C54.9596 8.58302 54.6649 9.29596 54.14 9.82225V9.82225Z" fill="#FFB7C3" style="fill:#FFB7C3;fill:color(display-p3 1.0000 0.7176 0.7647);fill-opacity:1;"/>
<path d="M57.5 22.4475C56.837 22.4475 56.2011 22.7109 55.7322 23.1797C55.2634 23.6486 55 24.2845 55 24.9475V37.5H45C43.0109 37.5 41.1032 38.2902 39.6967 39.6967C38.2902 41.1032 37.5 43.0109 37.5 45V55H12.5C10.5109 55 8.60322 54.2098 7.1967 52.8033C5.79018 51.3968 5 49.4891 5 47.5V12.5C5 10.5109 5.79018 8.60322 7.1967 7.1967C8.60322 5.79018 10.5109 5 12.5 5H35.105C35.768 5 36.4039 4.73661 36.8728 4.26777C37.3416 3.79893 37.605 3.16304 37.605 2.5C37.605 1.83696 37.3416 1.20107 36.8728 0.732233C36.4039 0.263392 35.768 0 35.105 0L12.5 0C9.18601 0.00396964 6.0089 1.32221 3.66555 3.66555C1.32221 6.0089 0.00396964 9.18601 0 12.5L0 47.5C0.00396964 50.814 1.32221 53.9911 3.66555 56.3345C6.0089 58.6778 9.18601 59.996 12.5 60H40.8575C42.4998 60.0047 44.1267 59.6836 45.6441 59.0554C47.1615 58.4272 48.5392 57.5042 49.6975 56.34L56.3375 49.695C57.5019 48.5372 58.4251 47.16 59.0538 45.643C59.6824 44.1261 60.004 42.4995 60 40.8575V24.9475C60 24.2845 59.7366 23.6486 59.2678 23.1797C58.7989 22.7109 58.163 22.4475 57.5 22.4475ZM46.1625 52.805C45.1575 53.8075 43.8867 54.5015 42.5 54.805V45C42.5 44.337 42.7634 43.7011 43.2322 43.2322C43.7011 42.7634 44.337 42.5 45 42.5H54.8125C54.5032 43.8838 53.81 45.1523 52.8125 46.16L46.1625 52.805Z" fill="#FFB7C3" style="fill:#FFB7C3;fill:color(display-p3 1.0000 0.7176 0.7647);fill-opacity:1;"/>
</g>
<defs>
<clipPath id="clip0_333_2351">
<rect width="60" height="60" fill="white" style="fill:white;fill-opacity:1;"/>
</clipPath>
</defs>
</svg>
