<svg width="60" height="60" viewBox="0 0 60 60" fill="none" xmlns="http://www.w3.org/2000/svg">
<g clip-path="url(#clip0_333_2500)">
<path d="M58.1808 23.5506C54.3033 17.2356 45.4833 6.64062 30.0033 6.64062C14.5233 6.64062 5.7033 17.2356 1.8258 23.5506C0.627122 25.4894 -0.0078125 27.7237 -0.0078125 30.0031C-0.0078125 32.2825 0.627122 34.5169 1.8258 36.4556C5.7033 42.7706 14.5233 53.3656 30.0033 53.3656C45.4833 53.3656 54.3033 42.7706 58.1808 36.4556C59.3795 34.5169 60.0144 32.2825 60.0144 30.0031C60.0144 27.7237 59.3795 25.4894 58.1808 23.5506V23.5506ZM53.9183 33.8381C50.5883 39.2531 43.0508 48.3656 30.0033 48.3656C16.9558 48.3656 9.4183 39.2531 6.0883 33.8381C5.37614 32.6857 4.99893 31.3578 4.99893 30.0031C4.99893 28.6484 5.37614 27.3205 6.0883 26.1681C9.4183 20.7531 16.9558 11.6406 30.0033 11.6406C43.0508 11.6406 50.5883 20.7431 53.9183 26.1681C54.6305 27.3205 55.0077 28.6484 55.0077 30.0031C55.0077 31.3578 54.6305 32.6857 53.9183 33.8381V33.8381Z" fill="#A13660" style="fill:#A13660;fill:color(display-p3 0.6314 0.2118 0.3765);fill-opacity:1;"/>
<path d="M30 17.5C27.5277 17.5 25.111 18.2331 23.0554 19.6066C20.9998 20.9801 19.3976 22.9324 18.4515 25.2165C17.5054 27.5005 17.2579 30.0139 17.7402 32.4386C18.2225 34.8634 19.413 37.0907 21.1612 38.8388C22.9093 40.587 25.1366 41.7775 27.5614 42.2598C29.9861 42.7421 32.4995 42.4946 34.7835 41.5485C37.0676 40.6024 39.0199 39.0002 40.3934 36.9446C41.7669 34.889 42.5 32.4723 42.5 30C42.496 26.686 41.1778 23.5089 38.8345 21.1656C36.4911 18.8222 33.314 17.504 30 17.5V17.5ZM30 37.5C28.5166 37.5 27.0666 37.0601 25.8332 36.236C24.5999 35.4119 23.6386 34.2406 23.0709 32.8701C22.5033 31.4997 22.3547 29.9917 22.6441 28.5368C22.9335 27.082 23.6478 25.7456 24.6967 24.6967C25.7456 23.6478 27.082 22.9335 28.5368 22.6441C29.9917 22.3547 31.4997 22.5032 32.8701 23.0709C34.2406 23.6386 35.4119 24.5999 36.236 25.8332C37.0601 27.0666 37.5 28.5166 37.5 30C37.5 31.9891 36.7098 33.8968 35.3033 35.3033C33.8968 36.7098 31.9891 37.5 30 37.5Z" fill="#A13660" style="fill:#A13660;fill:color(display-p3 0.6314 0.2118 0.3765);fill-opacity:1;"/>
</g>
<defs>
<clipPath id="clip0_333_2500">
<rect width="60" height="60" fill="white" style="fill:white;fill-opacity:1;"/>
</clipPath>
</defs>
</svg>
