<svg width="104" height="104" viewBox="0 0 104 104" fill="none" xmlns="http://www.w3.org/2000/svg">
<path d="M0 104L7.31032 77.2937C2.79933 69.4763 0.428999 60.6147 0.433332 51.5277C0.446332 23.1183 23.5646 0 51.9695 0C65.7539 0.00433333 78.6932 5.37333 88.4258 15.1147C98.1541 24.856 103.51 37.804 103.506 51.5753C103.493 79.989 80.3745 103.107 51.9695 103.107C43.3462 103.103 34.8486 100.941 27.3216 96.8327L0 104ZM28.5869 87.503C35.8496 91.8147 42.7829 94.3973 51.9522 94.4017C75.5602 94.4017 94.7915 75.1877 94.8045 51.5667C94.8131 27.898 75.6728 8.71 51.9869 8.70133C28.3616 8.70133 9.14331 27.9153 9.13465 51.532C9.13031 61.1737 11.9556 68.393 16.7006 75.946L12.3716 91.754L28.5869 87.503ZM77.9305 63.8257C77.6098 63.2883 76.7518 62.9677 75.4605 62.322C74.1735 61.6763 67.8425 58.5607 66.6595 58.1317C65.4808 57.7027 64.6229 57.486 63.7605 58.7773C62.9025 60.0643 60.4325 62.9677 59.6829 63.8257C58.9332 64.6837 58.1792 64.792 56.8922 64.1463C55.6052 63.5007 51.4539 62.1443 46.5356 57.7547C42.7092 54.34 40.1222 50.1237 39.3726 48.8323C38.6229 47.5453 39.2946 46.8477 39.9359 46.2063C40.5166 45.63 41.2229 44.7027 41.8686 43.9487C42.5229 43.2033 42.7352 42.666 43.1686 41.8037C43.5976 40.9457 43.3852 40.1917 43.0602 39.546C42.7352 38.9047 40.1612 32.565 39.0909 29.9867C38.0422 27.4777 36.9806 27.8157 36.1919 27.7767L33.7219 27.7333C32.8639 27.7333 31.4686 28.054 30.2899 29.3453C29.1113 30.6367 25.7833 33.748 25.7833 40.0877C25.7833 46.4273 30.3983 52.5503 31.0396 53.4083C31.6853 54.2663 40.1179 67.275 53.0355 72.852C56.1079 74.178 58.5085 74.971 60.3762 75.5647C63.4615 76.544 66.2695 76.4053 68.4882 76.076C70.9625 75.7077 76.1062 72.9603 77.1808 69.953C78.2555 66.9413 78.2555 64.363 77.9305 63.8257Z" fill="#04E578"/>
</svg>
