<svg width="36" height="35" viewBox="0 0 36 35" fill="none" xmlns="http://www.w3.org/2000/svg">
<g clip-path="url(#clip0_333_2520)">
<path d="M18 3.15137C22.8094 3.15137 23.3789 3.17187 25.2703 3.25391C27.0281 3.3291 27.9773 3.61621 28.6102 3.85547C29.4469 4.16992 30.0516 4.55273 30.6773 5.16113C31.3102 5.77637 31.6969 6.35742 32.0203 7.1709C32.2664 7.78613 32.5617 8.71582 32.6391 10.418C32.7234 12.2637 32.7445 12.8174 32.7445 17.4863C32.7445 22.1621 32.7234 22.7158 32.6391 24.5547C32.5617 26.2637 32.2664 27.1865 32.0203 27.8018C31.6969 28.6152 31.3031 29.2031 30.6773 29.8115C30.0445 30.4268 29.4469 30.8027 28.6102 31.1172C27.9773 31.3564 27.0211 31.6436 25.2703 31.7188C23.3719 31.8008 22.8023 31.8213 18 31.8213C13.1906 31.8213 12.6211 31.8008 10.7297 31.7188C8.97188 31.6436 8.02266 31.3564 7.38984 31.1172C6.55313 30.8027 5.94844 30.4199 5.32266 29.8115C4.68984 29.1963 4.30313 28.6152 3.97969 27.8018C3.73359 27.1865 3.43828 26.2568 3.36094 24.5547C3.27656 22.709 3.25547 22.1553 3.25547 17.4863C3.25547 12.8105 3.27656 12.2568 3.36094 10.418C3.43828 8.70898 3.73359 7.78613 3.97969 7.1709C4.30313 6.35742 4.69688 5.76953 5.32266 5.16113C5.95547 4.5459 6.55313 4.16992 7.38984 3.85547C8.02266 3.61621 8.97891 3.3291 10.7297 3.25391C12.6211 3.17187 13.1906 3.15137 18 3.15137ZM18 0C13.1133 0 12.5016 0.0205078 10.582 0.102539C8.66953 0.18457 7.35469 0.485351 6.21563 0.916016C5.02734 1.36719 4.02188 1.96191 3.02344 2.93945C2.01797 3.91016 1.40625 4.8877 0.942188 6.03613C0.499219 7.15039 0.189844 8.42187 0.105469 10.2812C0.0210938 12.1543 0 12.749 0 17.5C0 22.251 0.0210938 22.8457 0.105469 24.7119C0.189844 26.5713 0.499219 27.8496 0.942188 28.957C1.40625 30.1123 2.01797 31.0898 3.02344 32.0605C4.02188 33.0313 5.02734 33.6328 6.20859 34.0771C7.35469 34.5078 8.6625 34.8086 10.575 34.8906C12.4945 34.9727 13.1062 34.9932 17.993 34.9932C22.8797 34.9932 23.4914 34.9727 25.4109 34.8906C27.3234 34.8086 28.6383 34.5078 29.7773 34.0771C30.9586 33.6328 31.9641 33.0313 32.9625 32.0605C33.9609 31.0898 34.5797 30.1123 35.0367 28.9639C35.4797 27.8496 35.7891 26.5781 35.8734 24.7188C35.9578 22.8525 35.9789 22.2578 35.9789 17.5068C35.9789 12.7559 35.9578 12.1611 35.8734 10.2949C35.7891 8.43555 35.4797 7.15723 35.0367 6.0498C34.5938 4.8877 33.982 3.91016 32.9766 2.93945C31.9781 1.96875 30.9727 1.36719 29.7914 0.922852C28.6453 0.492187 27.3375 0.191406 25.425 0.109375C23.4984 0.0205078 22.8867 0 18 0Z" fill="#FFB7C3" style="fill:#FFB7C3;fill:color(display-p3 1.0000 0.7176 0.7647);fill-opacity:1;"/>
<path d="M17.9961 8.50781C12.8914 8.50781 8.75 12.5342 8.75 17.4971C8.75 22.46 12.8914 26.4863 17.9961 26.4863C23.1008 26.4863 27.2422 22.46 27.2422 17.4971C27.2422 12.5342 23.1008 8.50781 17.9961 8.50781ZM17.9961 23.3281C14.6844 23.3281 11.9984 20.7168 11.9984 17.4971C11.9984 14.2773 14.6844 11.666 17.9961 11.666C21.3078 11.666 23.9937 14.2773 23.9937 17.4971C23.9937 20.7168 21.3078 23.3281 17.9961 23.3281Z" fill="#FFB7C3" style="fill:#FFB7C3;fill:color(display-p3 1.0000 0.7176 0.7647);fill-opacity:1;"/>
<path d="M29.7703 8.15332C29.7703 9.31543 28.8 10.252 27.6117 10.252C26.4164 10.252 25.4531 9.3086 25.4531 8.15332C25.4531 6.99121 26.4234 6.05469 27.6117 6.05469C28.8 6.05469 29.7703 6.99805 29.7703 8.15332Z" fill="#FFB7C3" style="fill:#FFB7C3;fill:color(display-p3 1.0000 0.7176 0.7647);fill-opacity:1;"/>
</g>
<defs>
<clipPath id="clip0_333_2520">
<rect width="36" height="35" fill="white" style="fill:white;fill-opacity:1;"/>
</clipPath>
</defs>
</svg>
