<svg width="60" height="60" viewBox="0 0 60 60" fill="none" xmlns="http://www.w3.org/2000/svg">
<g clip-path="url(#clip0_333_2491)">
<path d="M10.002 14.9975C9.01634 15 8.03999 14.8072 7.1294 14.43C6.21881 14.0528 5.39205 13.4987 4.69696 12.8L0.836959 9.36495C0.341667 8.92337 0.0420807 8.30311 0.00410455 7.64064C-0.0338716 6.97817 0.192874 6.32774 0.634459 5.83245C1.07604 5.33716 1.6963 5.03757 2.35877 4.9996C3.02124 4.96162 3.67167 5.18837 4.16696 5.62995L8.12946 9.16495C8.3563 9.41969 8.63287 9.62532 8.94215 9.76917C9.25143 9.91303 9.58688 9.99208 9.92785 10.0014C10.2688 10.0108 10.6081 9.9503 10.9248 9.82364C11.2415 9.69698 11.529 9.50685 11.7695 9.26495L20.7795 0.687451C21.2639 0.256127 21.8971 0.029999 22.5452 0.056829C23.1933 0.083659 23.8056 0.361346 24.2528 0.831239C24.7 1.30113 24.947 1.92644 24.9417 2.57508C24.9364 3.22372 24.6792 3.84492 24.2245 4.30745L15.252 12.8425C14.5614 13.529 13.7423 14.0727 12.8414 14.4425C11.9406 14.8122 10.9757 15.0008 10.002 14.9975V14.9975ZM60.002 9.99745C60.002 9.33441 59.7386 8.69853 59.2697 8.22969C58.8009 7.76084 58.165 7.49745 57.502 7.49745H32.502C31.8389 7.49745 31.203 7.76084 30.7342 8.22969C30.2654 8.69853 30.002 9.33441 30.002 9.99745C30.002 10.6605 30.2654 11.2964 30.7342 11.7652C31.203 12.2341 31.8389 12.4975 32.502 12.4975H57.502C58.165 12.4975 58.8009 12.2341 59.2697 11.7652C59.7386 11.2964 60.002 10.6605 60.002 9.99745ZM15.252 32.8425L24.2245 24.3075C24.4749 24.0845 24.6779 23.8135 24.8214 23.5104C24.965 23.2074 25.0461 22.8786 25.06 22.5436C25.0738 22.2086 25.0202 21.8742 24.9022 21.5604C24.7842 21.2466 24.6042 20.9597 24.3731 20.7168C24.142 20.4739 23.8643 20.28 23.5567 20.1466C23.2491 20.0132 22.9178 19.943 22.5825 19.9403C22.2472 19.9376 21.9148 20.0023 21.6051 20.1307C21.2953 20.259 21.0145 20.4484 20.7795 20.6875L11.7795 29.265C11.3035 29.72 10.6704 29.974 10.012 29.974C9.35348 29.974 8.72038 29.72 8.24446 29.265L4.26946 25.3025C3.79795 24.8471 3.16645 24.5951 2.51096 24.6008C1.85546 24.6065 1.22843 24.8694 0.764913 25.3329C0.301393 25.7964 0.0384702 26.4235 0.0327742 27.0789C0.0270781 27.7344 0.279064 28.3659 0.734459 28.8375L4.69696 32.8C6.09614 34.1995 7.99175 34.9892 9.97071 34.9972C11.9497 35.0052 13.8516 34.2307 15.262 32.8425H15.252ZM60.002 29.9975C60.002 29.3344 59.7386 28.6985 59.2697 28.2297C58.8009 27.7608 58.165 27.4975 57.502 27.4975H32.502C31.8389 27.4975 31.203 27.7608 30.7342 28.2297C30.2654 28.6985 30.002 29.3344 30.002 29.9975C30.002 30.6605 30.2654 31.2964 30.7342 31.7652C31.203 32.2341 31.8389 32.4975 32.502 32.4975H57.502C58.165 32.4975 58.8009 32.2341 59.2697 31.7652C59.7386 31.2964 60.002 30.6605 60.002 29.9975ZM15.252 52.8425L24.2145 44.3075C24.4649 44.0845 24.6679 43.8135 24.8114 43.5104C24.955 43.2074 25.0361 42.8786 25.05 42.5436C25.0638 42.2086 25.0102 41.8742 24.8922 41.5604C24.7742 41.2466 24.5943 40.9597 24.3631 40.7168C24.132 40.4739 23.8543 40.28 23.5467 40.1466C23.2391 40.0132 22.9078 39.943 22.5725 39.9403C22.2372 39.9376 21.9048 40.0023 21.5951 40.1307C21.2853 40.259 21.0045 40.4484 20.7695 40.6875L11.7695 49.265C11.529 49.5069 11.2415 49.697 10.9248 49.8237C10.6081 49.9503 10.2688 50.0108 9.92785 50.0014C9.58688 49.9921 9.25143 49.913 8.94215 49.7692C8.63287 49.6253 8.3563 49.4197 8.12946 49.165L4.16696 45.63C3.67167 45.1884 3.02124 44.9616 2.35877 44.9996C1.6963 45.0376 1.07604 45.3372 0.634459 45.8325C0.192874 46.3277 -0.0338716 46.9782 0.00410455 47.6406C0.0420807 48.3031 0.341667 48.9234 0.836959 49.365L4.69696 52.8C6.09614 54.1995 7.99175 54.9892 9.97071 54.9972C11.9497 55.0052 13.8516 54.2307 15.262 52.8425H15.252ZM60.002 49.9975C60.002 49.3344 59.7386 48.6985 59.2697 48.2297C58.8009 47.7608 58.165 47.4975 57.502 47.4975H32.502C31.8389 47.4975 31.203 47.7608 30.7342 48.2297C30.2654 48.6985 30.002 49.3344 30.002 49.9975C30.002 50.6605 30.2654 51.2964 30.7342 51.7652C31.203 52.2341 31.8389 52.4975 32.502 52.4975H57.502C58.165 52.4975 58.8009 52.2341 59.2697 51.7652C59.7386 51.2964 60.002 50.6605 60.002 49.9975Z" fill="#A13660" style="fill:#A13660;fill:color(display-p3 0.6314 0.2118 0.3765);fill-opacity:1;"/>
</g>
<defs>
<clipPath id="clip0_333_2491">
<rect width="60" height="60" fill="white" style="fill:white;fill-opacity:1;"/>
</clipPath>
</defs>
</svg>
