<svg width="60" height="60" viewBox="0 0 60 60" fill="none" xmlns="http://www.w3.org/2000/svg">
<g clip-path="url(#clip0_333_2348)">
<path d="M51.7 2.91418L51.6475 2.89668L44.86 0.646686C42.5155 -0.131673 39.9934 -0.20038 37.61 0.449187L23.67 4.49668C21.9631 4.94902 20.1518 4.78982 18.55 4.04668L17.3 3.46668C15.4015 2.67712 13.3375 2.36808 11.291 2.56695C9.24447 2.76582 7.27861 3.46647 5.56763 4.60679C3.85665 5.74711 2.45339 7.2919 1.48221 9.10424C0.511027 10.9166 0.00191821 12.9405 0 14.9967L0 45.1841C0.00525399 47.8875 0.88448 50.5166 2.50648 52.6793C4.12847 54.8419 6.40628 56.4221 9 57.1841L16.1725 59.4341C17.3825 59.8103 18.6428 60 19.91 59.9966C21.0395 60.0109 22.165 59.8585 23.25 59.5441L37.75 55.5441C39.0751 55.1847 40.4734 55.196 41.7925 55.5766L47.65 57.2666C49.1205 57.6222 50.6526 57.6394 52.1308 57.317C53.6089 56.9946 54.9947 56.3411 56.1837 55.4055C57.3727 54.47 58.3339 53.2769 58.9949 51.916C59.656 50.5552 59.9996 49.062 60 47.5491V14.6867C59.9962 12.1088 59.1971 9.59482 57.7116 7.48792C56.2262 5.38101 54.1268 3.78377 51.7 2.91418V2.91418ZM10.44 52.3941C8.87577 51.9418 7.50023 50.9948 6.51949 49.6949C5.53875 48.3951 5.00563 46.8124 5 45.1841V14.9967C4.98785 13.7584 5.28739 12.5369 5.87106 11.4447C6.45473 10.3525 7.30376 9.42472 8.34 8.74668C9.57301 7.92879 11.0204 7.49388 12.5 7.49668C13.4542 7.49694 14.3989 7.68554 15.28 8.05168C15.28 8.05168 17.1425 8.84918 17.4975 8.97668V54.6016L10.44 52.3941ZM22.5 54.5641V9.69418C23.3491 9.64912 24.1917 9.5193 25.015 9.30668L37.5 5.67918V50.4966L22.5 54.5641ZM55 47.5491C55.0005 48.298 54.8329 49.0374 54.5093 49.7128C54.1858 50.3881 53.7148 50.9822 53.1309 51.4511C52.547 51.92 51.8653 52.2518 51.136 52.4219C50.4068 52.5921 49.6486 52.5963 48.9175 52.4341L42.5 50.6266V5.18418L50.045 7.63168C51.4951 8.15706 52.7483 9.11587 53.6348 10.378C54.5212 11.6401 54.9978 13.1444 55 14.6867V47.5491Z" fill="#FFB7C3" style="fill:#FFB7C3;fill:color(display-p3 1.0000 0.7176 0.7647);fill-opacity:1;"/>
</g>
<defs>
<clipPath id="clip0_333_2348">
<rect width="60" height="60" fill="white" style="fill:white;fill-opacity:1;"/>
</clipPath>
</defs>
</svg>
