<svg width="60" height="60" viewBox="0 0 60 60" fill="none" xmlns="http://www.w3.org/2000/svg">
<g clip-path="url(#clip0_333_2354)">
<path d="M25.8914 7.2982L22.3514 13.0482C21.9868 13.5737 21.4346 13.9395 20.8085 14.0703C20.1823 14.2011 19.5299 14.0869 18.9854 13.7512C18.4409 13.4156 18.0458 12.884 17.8814 12.2658C17.7169 11.6477 17.7957 10.99 18.1014 10.4282L21.6414 4.6782C22.5291 3.26074 23.7624 2.0921 25.2256 1.28199C26.6888 0.471878 28.3339 0.046875 30.0064 0.046875C31.6789 0.046875 33.3239 0.471878 34.7871 1.28199C36.2503 2.0921 37.4837 3.26074 38.3714 4.6782L48.8714 21.7632L49.9739 15.8507C50.0952 15.1986 50.4706 14.6214 51.0175 14.2461C51.5645 13.8708 52.238 13.7281 52.8901 13.8495C53.5422 13.9708 54.1194 14.3462 54.4947 14.8931C54.8701 15.44 55.0127 16.1136 54.8914 16.7657L53.6414 23.4407C53.3215 25.1591 52.4116 26.7117 51.0687 27.8305C49.7258 28.9493 48.0343 29.5639 46.2864 29.5682C45.7989 29.5682 38.2439 28.1282 38.2439 28.1282C37.6043 27.9892 37.0448 27.6049 36.6854 27.0579C36.326 26.5109 36.1955 25.8448 36.3219 25.2026C36.4482 24.5605 36.8213 23.9934 37.3611 23.6233C37.9009 23.2532 38.5643 23.1096 39.2089 23.2232L44.5414 24.2757L34.1064 7.2982C33.6725 6.59953 33.0676 6.02307 32.3489 5.62334C31.6301 5.22361 30.8213 5.01382 29.9989 5.01382C29.1765 5.01382 28.3676 5.22361 27.6489 5.62334C26.9302 6.02307 26.3253 6.59953 25.8914 7.2982V7.2982ZM58.5214 37.4457L56.1014 33.5157C55.939 33.2173 55.7176 32.9552 55.4505 32.7452C55.1835 32.5353 54.8764 32.382 54.5482 32.2947C54.2199 32.2073 53.8773 32.1878 53.5412 32.2373C53.2051 32.2868 52.8827 32.4043 52.5935 32.5825C52.3044 32.7608 52.0546 32.9961 51.8594 33.2741C51.6642 33.5521 51.5277 33.867 51.4583 34.1995C51.3888 34.532 51.3879 34.8752 51.4554 35.2081C51.523 35.541 51.6578 35.8566 51.8514 36.1357L54.2714 40.0657C54.733 40.805 54.9863 41.6552 55.0043 42.5266C55.0224 43.3979 54.8045 44.258 54.3739 45.0157C53.9597 45.7714 53.3488 46.4009 52.6058 46.8376C51.8629 47.2742 51.0156 47.5016 50.1539 47.4957H31.6889L34.8664 44.3232C35.3225 43.8524 35.5754 43.2212 35.5707 42.5657C35.5659 41.9101 35.3039 41.2827 34.841 40.8185C34.3781 40.3543 33.7514 40.0905 33.0959 40.0839C32.4404 40.0773 31.8085 40.3284 31.3364 40.7832L27.1064 44.9957C25.7862 46.3084 25.0302 48.0843 24.9989 49.9457C24.9989 49.9457 24.9989 49.9707 24.9989 49.9807C24.9989 49.9907 24.9989 50.0132 24.9989 50.0307C24.9918 50.9927 25.1772 51.9463 25.5443 52.8355C25.9114 53.7247 26.4527 54.5314 27.1364 55.2082L31.3414 59.3382C31.5731 59.5797 31.8509 59.7723 32.1584 59.9044C32.4659 60.0365 32.7968 60.1056 33.1315 60.1075C33.4661 60.1093 33.7978 60.044 34.1067 59.9153C34.4157 59.7866 34.6956 59.5972 34.93 59.3583C35.1644 59.1194 35.3484 58.8359 35.4712 58.5245C35.594 58.2132 35.653 57.8803 35.6447 57.5457C35.6364 57.2112 35.5611 56.8817 35.4231 56.5768C35.2851 56.2718 35.0873 55.9977 34.8414 55.7707L31.5214 52.4957H50.1539C51.9078 52.4897 53.6283 52.0164 55.1386 51.1246C56.6488 50.2328 57.8941 48.9547 58.7463 47.4219C59.5986 45.889 60.027 44.1567 59.9875 42.4033C59.9479 40.6498 59.4419 38.9386 58.5214 37.4457V37.4457ZM16.9489 18.0282C16.1296 17.4703 15.2073 17.0812 14.2359 16.8837C13.2645 16.6863 12.2635 16.6844 11.2914 16.8782L4.7189 18.1732C4.39149 18.2309 4.07888 18.3534 3.79936 18.5334C3.51985 18.7134 3.27905 18.9473 3.09105 19.2215C2.90305 19.4957 2.77163 19.8047 2.70448 20.1303C2.63733 20.4559 2.6358 20.7916 2.69998 21.1178C2.76415 21.444 2.89275 21.7542 3.07824 22.0301C3.26373 22.306 3.50239 22.5421 3.78025 22.7247C4.05811 22.9072 4.36958 23.0325 4.69646 23.0932C5.02333 23.1539 5.35902 23.1488 5.6839 23.0782L10.9539 22.0407L1.4764 37.4457C0.556024 38.9384 0.0499816 40.6494 0.0103357 42.4026C-0.0293102 44.1558 0.398872 45.888 1.25083 47.4208C2.10278 48.9536 3.34774 50.2317 4.85762 51.1237C6.36749 52.0157 8.08775 52.4892 9.8414 52.4957H17.6989C18.3619 52.4957 18.9978 52.2323 19.4667 51.7635C19.9355 51.2946 20.1989 50.6587 20.1989 49.9957C20.1989 49.3327 19.9355 48.6968 19.4667 48.2279C18.9978 47.7591 18.3619 47.4957 17.6989 47.4957H9.8414C8.98136 47.4998 8.13619 47.2715 7.39516 46.835C6.65413 46.3985 6.04475 45.7699 5.6314 45.0157C5.20076 44.258 4.98294 43.3979 5.00098 42.5266C5.01902 41.6552 5.27226 40.805 5.7339 40.0657L15.3289 24.4707L16.4439 30.4557C16.5659 31.1078 16.9419 31.6847 17.4893 32.0596C18.0367 32.4344 18.7105 32.5765 19.3626 32.4545C20.0147 32.3325 20.5917 31.9564 20.9665 31.409C21.3414 30.8617 21.4834 30.1878 21.3614 29.5357L20.1114 22.8607C19.9318 21.8855 19.5596 20.9559 19.0166 20.1261C18.4736 19.2964 17.7707 18.5832 16.9489 18.0282V18.0282Z" fill="#FFB7C3" style="fill:#FFB7C3;fill:color(display-p3 1.0000 0.7176 0.7647);fill-opacity:1;"/>
</g>
<defs>
<clipPath id="clip0_333_2354">
<rect width="60" height="60" fill="white" style="fill:white;fill-opacity:1;"/>
</clipPath>
</defs>
</svg>
