<svg width="60" height="60" viewBox="0 0 60 60" fill="none" xmlns="http://www.w3.org/2000/svg">
<g clip-path="url(#clip0_333_2357)">
<path d="M57.5 55H7.5C6.83696 55 6.20107 54.7366 5.73223 54.2678C5.26339 53.7989 5 53.163 5 52.5V2.5C5 1.83696 4.73661 1.20107 4.26777 0.732233C3.79893 0.263392 3.16304 0 2.5 0C1.83696 0 1.20107 0.263392 0.732233 0.732233C0.263392 1.20107 0 1.83696 0 2.5L0 52.5C0 54.4891 0.790176 56.3968 2.1967 57.8033C3.60322 59.2098 5.51088 60 7.5 60H57.5C58.163 60 58.7989 59.7366 59.2678 59.2678C59.7366 58.7989 60 58.163 60 57.5C60 56.837 59.7366 56.2011 59.2678 55.7322C58.7989 55.2634 58.163 55 57.5 55Z" fill="#FFB7C3" style="fill:#FFB7C3;fill:color(display-p3 1.0000 0.7176 0.7647);fill-opacity:1;"/>
<path d="M37.5 50C38.1631 50 38.7989 49.7366 39.2678 49.2678C39.7366 48.7989 40 48.163 40 47.5V30C40 29.337 39.7366 28.7011 39.2678 28.2322C38.7989 27.7634 38.1631 27.5 37.5 27.5C36.837 27.5 36.2011 27.7634 35.7322 28.2322C35.2634 28.7011 35 29.337 35 30V47.5C35 48.163 35.2634 48.7989 35.7322 49.2678C36.2011 49.7366 36.837 50 37.5 50Z" fill="#FFB7C3" style="fill:#FFB7C3;fill:color(display-p3 1.0000 0.7176 0.7647);fill-opacity:1;"/>
<path d="M17.5 50C18.163 50 18.7989 49.7366 19.2678 49.2678C19.7366 48.7989 20 48.163 20 47.5V30C20 29.337 19.7366 28.7011 19.2678 28.2322C18.7989 27.7634 18.163 27.5 17.5 27.5C16.837 27.5 16.2011 27.7634 15.7322 28.2322C15.2634 28.7011 15 29.337 15 30V47.5C15 48.163 15.2634 48.7989 15.7322 49.2678C16.2011 49.7366 16.837 50 17.5 50Z" fill="#FFB7C3" style="fill:#FFB7C3;fill:color(display-p3 1.0000 0.7176 0.7647);fill-opacity:1;"/>
<path d="M47.5 50C48.1631 50 48.799 49.7366 49.2678 49.2678C49.7366 48.7989 50 48.163 50 47.5V17.5C50 16.837 49.7366 16.2011 49.2678 15.7322C48.799 15.2634 48.1631 15 47.5 15C46.837 15 46.2011 15.2634 45.7322 15.7322C45.2634 16.2011 45 16.837 45 17.5V47.5C45 48.163 45.2634 48.7989 45.7322 49.2678C46.2011 49.7366 46.837 50 47.5 50Z" fill="#FFB7C3" style="fill:#FFB7C3;fill:color(display-p3 1.0000 0.7176 0.7647);fill-opacity:1;"/>
<path d="M27.5 50C28.1631 50 28.7989 49.7366 29.2678 49.2678C29.7366 48.7989 30 48.163 30 47.5V17.5C30 16.837 29.7366 16.2011 29.2678 15.7322C28.7989 15.2634 28.1631 15 27.5 15C26.837 15 26.2011 15.2634 25.7322 15.7322C25.2634 16.2011 25 16.837 25 17.5V47.5C25 48.163 25.2634 48.7989 25.7322 49.2678C26.2011 49.7366 26.837 50 27.5 50Z" fill="#FFB7C3" style="fill:#FFB7C3;fill:color(display-p3 1.0000 0.7176 0.7647);fill-opacity:1;"/>
</g>
<defs>
<clipPath id="clip0_333_2357">
<rect width="60" height="60" fill="white" style="fill:white;fill-opacity:1;"/>
</clipPath>
</defs>
</svg>
