<svg width="60" height="60" viewBox="0 0 60 60" fill="none" xmlns="http://www.w3.org/2000/svg">
<g clip-path="url(#clip0_333_2497)">
<path d="M30 30C32.9667 30 35.8668 29.1203 38.3336 27.4721C40.8003 25.8238 42.7229 23.4812 43.8582 20.7403C44.9935 17.9994 45.2906 14.9834 44.7118 12.0737C44.133 9.16394 42.7044 6.49119 40.6066 4.39341C38.5088 2.29562 35.8361 0.867006 32.9264 0.288228C30.0166 -0.290551 27.0006 0.00649929 24.2597 1.14181C21.5189 2.27713 19.1762 4.19972 17.528 6.66645C15.8797 9.13319 15 12.0333 15 15C15.004 18.977 16.5856 22.79 19.3978 25.6022C22.21 28.4144 26.023 29.996 30 30ZM30 5.00001C31.9778 5.00001 33.9112 5.5865 35.5557 6.68531C37.2002 7.78412 38.4819 9.34591 39.2388 11.1732C39.9957 13.0004 40.1937 15.0111 39.8079 16.9509C39.422 18.8907 38.4696 20.6726 37.0711 22.0711C35.6725 23.4696 33.8907 24.422 31.9509 24.8079C30.0111 25.1937 28.0004 24.9957 26.1732 24.2388C24.3459 23.4819 22.7841 22.2002 21.6853 20.5557C20.5865 18.9112 20 16.9778 20 15C20 12.3478 21.0536 9.8043 22.9289 7.92894C24.8043 6.05358 27.3478 5.00001 30 5.00001V5.00001Z" fill="#A13660" style="fill:#A13660;fill:color(display-p3 0.6314 0.2118 0.3765);fill-opacity:1;"/>
<path d="M30 35C24.0347 35.0066 18.3155 37.3793 14.0974 41.5974C9.87927 45.8155 7.50662 51.5347 7.5 57.5C7.5 58.163 7.76339 58.7989 8.23223 59.2678C8.70107 59.7366 9.33696 60 10 60C10.663 60 11.2989 59.7366 11.7678 59.2678C12.2366 58.7989 12.5 58.163 12.5 57.5C12.5 52.8587 14.3437 48.4075 17.6256 45.1256C20.9075 41.8437 25.3587 40 30 40C34.6413 40 39.0925 41.8437 42.3744 45.1256C45.6563 48.4075 47.5 52.8587 47.5 57.5C47.5 58.163 47.7634 58.7989 48.2322 59.2678C48.7011 59.7366 49.337 60 50 60C50.663 60 51.2989 59.7366 51.7678 59.2678C52.2366 58.7989 52.5 58.163 52.5 57.5C52.4934 51.5347 50.1207 45.8155 45.9026 41.5974C41.6845 37.3793 35.9653 35.0066 30 35V35Z" fill="#A13660" style="fill:#A13660;fill:color(display-p3 0.6314 0.2118 0.3765);fill-opacity:1;"/>
</g>
<defs>
<clipPath id="clip0_333_2497">
<rect width="60" height="60" fill="white" style="fill:white;fill-opacity:1;"/>
</clipPath>
</defs>
</svg>
