<svg width="35" height="35" viewBox="0 0 35 35" fill="none" xmlns="http://www.w3.org/2000/svg">
<path d="M0 35L2.46021 26.0123C0.942083 23.3815 0.144375 20.3992 0.145833 17.341C0.150208 7.78021 7.93042 0 17.4898 0C22.1287 0.00145833 26.4833 1.80833 29.7587 5.08667C33.0327 8.365 34.8352 12.7225 34.8338 17.3571C34.8294 26.9194 27.0492 34.6996 17.4898 34.6996C14.5877 34.6981 11.7279 33.9704 9.19479 32.5879L0 35ZM9.62062 29.4481C12.0648 30.8992 14.3981 31.7683 17.484 31.7698C25.429 31.7698 31.901 25.3035 31.9054 17.3542C31.9083 9.38875 25.4669 2.93125 17.4956 2.92833C9.54479 2.92833 3.07708 9.39458 3.07417 17.3425C3.07271 20.5873 4.02354 23.0169 5.62042 25.5587L4.16354 30.8788L9.62062 29.4481ZM26.2267 21.4798C26.1188 21.299 25.83 21.191 25.3954 20.9738C24.9623 20.7565 22.8317 19.7079 22.4335 19.5635C22.0369 19.4192 21.7481 19.3463 21.4579 19.7808C21.1692 20.214 20.3379 21.191 20.0856 21.4798C19.8333 21.7685 19.5796 21.805 19.1465 21.5877C18.7133 21.3704 17.3162 20.914 15.661 19.4367C14.3733 18.2875 13.5027 16.8685 13.2504 16.434C12.9981 16.0008 13.2242 15.766 13.44 15.5502C13.6354 15.3563 13.8731 15.0442 14.0904 14.7904C14.3106 14.5396 14.3821 14.3588 14.5279 14.0685C14.6723 13.7798 14.6008 13.526 14.4915 13.3088C14.3821 13.0929 13.5158 10.9594 13.1556 10.0917C12.8027 9.24729 12.4454 9.36104 12.18 9.34792L11.3487 9.33333C11.06 9.33333 10.5904 9.44125 10.1937 9.87583C9.79708 10.3104 8.67708 11.3575 8.67708 13.491C8.67708 15.6246 10.2302 17.6852 10.446 17.974C10.6633 18.2627 13.5012 22.6406 17.8485 24.5175C18.8825 24.9638 19.6904 25.2306 20.319 25.4304C21.3573 25.76 22.3023 25.7133 23.049 25.6025C23.8817 25.4785 25.6127 24.554 25.9744 23.5419C26.336 22.5283 26.336 21.6606 26.2267 21.4798Z" fill="#FFB7C3" style="fill:#FFB7C3;fill:color(display-p3 1.0000 0.7176 0.7647);fill-opacity:1;"/>
</svg>
