<svg width="452" height="452" viewBox="0 0 452 452" fill="none" xmlns="http://www.w3.org/2000/svg">
<rect x="0.5" y="0.5" width="451" height="451" rx="39.5" fill="#A13660" stroke="black"/>
<path fill-rule="evenodd" clip-rule="evenodd" d="M360.155 222.406C364.278 235.758 356.796 249.924 343.444 254.047L202.585 297.164C189.233 301.287 175.066 293.805 170.943 280.453C166.82 267.101 174.302 252.934 187.654 248.811L328.513 205.695C341.865 201.572 356.032 209.053 360.155 222.406Z" fill="#1F2C3D"/>
<path d="M303.74 148.448C312.856 139.332 312.945 124.363 302.45 116.875C281.588 101.992 256.927 92.9933 231.077 91.0742C197.417 88.5754 163.979 98.2466 136.85 118.327C109.721 138.408 90.7049 167.563 83.2632 200.485C75.8216 233.406 80.4493 267.906 96.3039 297.702C112.159 327.499 138.186 350.612 169.648 362.833C201.11 375.055 235.914 375.572 267.726 364.291C299.537 353.01 326.239 330.681 342.973 301.368C355.823 278.857 362.138 253.376 361.45 227.758C361.104 214.871 348.639 206.581 335.985 209.049C323.331 211.516 315.383 223.873 314.67 236.745C313.868 251.23 309.724 265.442 302.428 278.223C291.241 297.82 273.389 312.748 252.122 320.29C230.854 327.831 207.586 327.486 186.552 319.315C165.519 311.145 148.118 295.693 137.519 275.772C126.919 255.852 123.825 232.787 128.8 210.778C133.776 188.768 146.489 169.277 164.626 155.852C182.763 142.427 205.117 135.962 227.62 137.632C242.297 138.722 256.399 143.225 268.861 150.652C279.935 157.252 294.624 157.564 303.74 148.448Z" fill="white"/>
<path d="M342.994 176.853C342.994 187.972 333.98 196.986 322.86 196.986C311.741 196.986 302.727 187.972 302.727 176.853C302.727 165.733 311.741 156.719 322.86 156.719C333.98 156.719 342.994 165.733 342.994 176.853Z" fill="#1F2C3D"/>
</svg>
