<svg width="640" height="617" viewBox="0 0 640 617" fill="none" xmlns="http://www.w3.org/2000/svg">
<path fill-rule="evenodd" clip-rule="evenodd" d="M614.127 288.556C623.156 317.795 606.772 348.817 577.533 357.846L269.079 452.263C239.84 461.291 208.818 444.908 199.79 415.669C190.761 386.43 207.145 355.408 236.384 346.379L544.838 251.962C574.077 242.934 605.099 259.317 614.127 288.556Z" fill="#A13660" style="fill:#A13660;fill:color(display-p3 0.6314 0.2118 0.3765);fill-opacity:1;"/>
<path d="M490.596 126.607C510.559 106.645 510.754 73.8643 487.772 57.4688C442.087 24.8775 388.085 5.17132 331.477 0.968932C257.769 -4.503 184.546 16.6752 125.139 60.6481C65.7315 104.621 24.0896 168.465 7.79376 240.557C-8.50208 312.649 1.63174 388.197 36.3504 453.446C71.0691 518.695 128.064 569.308 196.96 596.07C265.856 622.833 342.071 623.966 411.732 599.262C481.392 574.559 539.866 525.662 576.509 461.474C604.65 412.177 618.477 356.379 616.971 300.281C616.213 272.06 588.916 253.908 561.207 259.311C533.498 264.714 516.094 291.774 514.532 319.962C512.775 351.68 503.7 382.802 487.723 410.79C463.226 453.703 424.133 486.392 377.562 502.908C330.991 519.423 280.038 518.666 233.978 500.774C187.918 482.882 149.814 449.045 126.603 405.423C103.392 361.801 96.6173 311.294 107.512 263.097C118.406 214.901 146.246 172.218 185.962 142.82C225.679 113.422 274.631 99.2639 323.909 102.922C356.047 105.308 386.93 115.169 414.217 131.433C438.468 145.886 470.634 146.57 490.596 126.607Z" fill="white" style="fill:white;fill-opacity:1;"/>
<path d="M576.55 188.805C576.55 213.155 556.81 232.894 532.46 232.894C508.111 232.894 488.371 213.155 488.371 188.805C488.371 164.455 508.111 144.716 532.46 144.716C556.81 144.716 576.55 164.455 576.55 188.805Z" fill="#A13660" style="fill:#A13660;fill:color(display-p3 0.6314 0.2118 0.3765);fill-opacity:1;"/>
</svg>
