<svg width="318" height="46" viewBox="0 0 318 46" fill="none" xmlns="http://www.w3.org/2000/svg">
<path d="M27.321 14.917C28.3217 13.5853 28.0614 11.6686 26.5828 10.9013C23.8373 9.4766 20.758 8.76722 17.6332 8.86454C13.4976 8.99334 9.52919 10.5275 6.38238 13.2142C3.23558 15.9009 1.0982 19.5797 0.322612 23.644C-0.452976 27.7084 0.179528 31.9157 2.11585 35.5724C4.05217 39.2291 7.17672 42.1168 10.9744 43.7595C14.772 45.4022 19.0161 45.7018 23.0068 44.6089C26.9976 43.516 30.4968 41.0959 32.9277 37.7475C34.7643 35.2176 35.9082 32.2719 36.2727 29.2003C36.469 27.5461 35.03 26.2536 33.3661 26.3329C31.7022 26.4122 30.4553 27.8437 30.1239 29.4762C29.7797 31.1713 29.0757 32.7852 28.046 34.2036C26.4209 36.4421 24.0815 38.0601 21.4135 38.7907C18.7455 39.5214 15.9082 39.3211 13.3693 38.2229C10.8304 37.1246 8.74147 35.1941 7.44696 32.7494C6.15244 30.3048 5.72958 27.492 6.2481 24.7748C6.76661 22.0576 8.19554 19.5981 10.2993 17.802C12.4031 16.0058 15.0561 14.9801 17.821 14.894C19.5729 14.8395 21.3035 15.1642 22.8989 15.8322C24.4355 16.4755 26.3203 16.2487 27.321 14.917Z" fill="#F5F5F5"/>
<path fill-rule="evenodd" clip-rule="evenodd" d="M25.6063 10.8109C27.2349 11.5906 27.923 13.543 27.1432 15.1716L14.8284 40.891C14.0486 42.5196 12.0962 43.2077 10.4676 42.4279C8.83903 41.6481 8.15094 39.6957 8.93073 38.0672L21.2455 12.3477C22.0253 10.7192 23.9777 10.0311 25.6063 10.8109Z" fill="#F5F5F5"/>
<path fill-rule="evenodd" clip-rule="evenodd" d="M88.5808 37.3747C89.3036 38.2684 90.491 38.7153 92.143 38.7153V38.723H92.4082C94.2144 38.723 95.6785 40.1871 95.6785 41.9933C95.6785 43.7994 94.2144 45.2636 92.4082 45.2636H91.7232V45.2583C88.4445 45.1793 85.831 44.167 83.8828 42.2213C81.8178 40.1933 80.7853 37.0998 80.7853 32.9407V0.208008H87.4967V32.9407C87.4967 35.003 87.858 36.4811 88.5808 37.3747Z" fill="#F5F5F5"/>
<path d="M68.7354 16.3186C69.9133 15.1407 69.9248 13.2065 68.5687 12.239C65.873 10.3159 62.6866 9.15316 59.3464 8.90519C54.9971 8.58232 50.6766 9.83196 47.1712 12.4266C43.6658 15.0213 41.2086 18.7885 40.2471 23.0423C39.2855 27.2962 39.8835 31.754 41.9321 35.6041C43.9807 39.4542 47.3438 42.4406 51.409 44.0198C55.4743 45.5989 59.9715 45.6658 64.0819 44.2081C68.1923 42.7505 71.6426 39.8653 73.8047 36.0778C75.4652 33.169 76.2811 29.8765 76.1922 26.5664C76.1475 24.9012 74.5368 23.8301 72.9018 24.1489C71.2668 24.4678 70.2399 26.0644 70.1477 27.7277C70.0441 29.5993 69.5085 31.4357 68.5658 33.0871C67.1203 35.6193 64.8137 37.5481 62.0657 38.5226C59.3177 39.4971 56.3111 39.4524 53.5933 38.3967C50.8755 37.341 48.6272 35.3444 47.2576 32.7704C45.888 30.1965 45.4882 27.2163 46.1311 24.3724C46.7739 21.5285 48.4166 19.0099 50.7601 17.2753C53.1036 15.5406 55.9921 14.7052 58.8998 14.9211C60.7961 15.0618 62.6184 15.6437 64.2285 16.6033C65.6595 17.4562 67.5575 17.4965 68.7354 16.3186Z" fill="#F5F5F5"/>
<path fill-rule="evenodd" clip-rule="evenodd" d="M153.18 25.7926C153.716 27.5272 152.744 29.3675 151.009 29.9031L132.71 35.5043C130.976 36.0399 129.135 35.0679 128.6 33.3334C128.064 31.5988 129.036 29.7585 130.771 29.2229L149.069 23.6217C150.804 23.0861 152.644 24.0581 153.18 25.7926Z" fill="#FFB7C3"/>
<path d="M145.852 16.1867C147.036 15.0024 147.048 13.0578 145.684 12.0851C142.974 10.1517 139.77 8.98265 136.412 8.73334C132.04 8.40873 127.696 9.66509 124.171 12.2737C120.647 14.8824 118.177 18.6698 117.21 22.9466C116.243 27.2234 116.845 31.7051 118.904 35.5759C120.964 39.4468 124.345 42.4493 128.432 44.0369C132.519 45.6246 137.041 45.6918 141.173 44.2263C145.306 42.7608 148.775 39.8601 150.948 36.0522C152.618 33.1277 153.438 29.8176 153.349 26.4896C153.304 24.8154 151.684 23.7386 150.041 24.0591C148.397 24.3797 147.364 25.985 147.272 27.6572C147.167 29.5388 146.629 31.3851 145.681 33.0454C144.228 35.5912 141.909 37.5304 139.146 38.5102C136.383 39.4899 133.361 39.445 130.628 38.3836C127.896 37.3222 125.635 35.3149 124.258 32.727C122.881 30.1392 122.479 27.143 123.126 24.2838C123.772 21.4245 125.424 18.8925 127.78 17.1485C130.136 15.4045 133.04 14.5646 135.963 14.7816C137.87 14.9231 139.702 15.5081 141.321 16.4729C142.759 17.3304 144.667 17.3709 145.852 16.1867Z" fill="#F5F5F5"/>
<path d="M150.952 19.8773C150.952 21.3218 149.781 22.4928 148.336 22.4928C146.891 22.4928 145.72 21.3218 145.72 19.8773C145.72 18.4327 146.891 17.2617 148.336 17.2617C149.781 17.2617 150.952 18.4327 150.952 19.8773Z" fill="#FFB7C3"/>
<path d="M299.708 8.68286C289.605 8.68286 281.415 16.8727 281.415 26.9755C281.415 37.0782 289.605 45.2681 299.708 45.2681C309.811 45.2681 318.001 37.0782 318.001 26.9755C318.001 16.8727 309.811 8.68286 299.708 8.68286ZM299.708 39.2534C292.927 39.2534 287.43 33.7564 287.43 26.9755C287.43 20.1946 292.927 14.6976 299.708 14.6976C306.489 14.6976 311.986 20.1946 311.986 26.9755C311.986 33.7564 306.489 39.2534 299.708 39.2534Z" fill="#F5F5F5"/>
<path fill-rule="evenodd" clip-rule="evenodd" d="M182.772 10.8458C184.4 11.6256 185.088 13.5779 184.309 15.2065L171.994 40.9259C171.214 42.5545 169.262 43.2426 167.633 42.4628C166.005 41.683 165.316 39.7307 166.096 38.1021L178.411 12.3827C179.191 10.7541 181.143 10.066 182.772 10.8458Z" fill="#F5F5F5"/>
<path d="M184.486 14.9522C185.487 13.6204 185.227 11.7038 183.748 10.9365C181.003 9.51175 177.923 8.80238 174.799 8.89969C170.663 9.02849 166.694 10.5627 163.548 13.2494C160.401 15.9361 158.263 19.6148 157.488 23.6792C156.712 27.7436 157.345 31.9509 159.281 35.6076C161.217 39.2642 164.342 42.152 168.14 43.7947C171.937 45.4374 176.181 45.7369 180.172 44.6441C184.163 43.5512 187.662 41.1311 190.093 37.7827C191.93 35.2528 193.073 32.3071 193.438 29.2355C193.634 27.5813 192.195 26.2888 190.531 26.368C188.867 26.4473 187.621 27.8789 187.289 29.5114C186.945 31.2065 186.241 32.8203 185.211 34.2387C183.586 36.4773 181.247 38.0952 178.579 38.8259C175.911 39.5565 173.073 39.3562 170.535 38.258C167.996 37.1598 165.907 35.2292 164.612 32.7846C163.318 30.3399 162.895 27.5271 163.413 24.8099C163.932 22.0927 165.361 19.6333 167.465 17.8371C169.568 16.041 172.221 15.0153 174.986 14.9292C176.738 14.8746 178.469 15.1993 180.064 15.8673C181.601 16.5107 183.486 16.2839 184.486 14.9522Z" fill="#F5F5F5"/>
<path d="M274.08 34.3346C275.544 35.1288 277.402 34.5897 277.944 33.0145C279.045 29.8133 279.237 26.3476 278.469 23.01C277.473 18.6862 274.931 14.8752 271.323 12.2935C267.714 9.71184 263.287 8.53735 258.873 8.99087C254.459 9.44439 250.363 11.4947 247.355 14.7562C244.347 18.0178 242.634 22.2659 242.538 26.7019C242.442 31.1379 243.97 35.4561 246.834 38.8446C249.699 42.2331 253.702 44.4586 258.092 45.1024C261.481 45.5994 264.92 45.1276 268.022 43.7719C269.548 43.1048 269.936 41.2098 269.026 39.8143C268.116 38.4189 266.25 38.0671 264.674 38.6067C262.855 39.2297 260.899 39.4171 258.968 39.1339C256.033 38.7034 253.356 37.2156 251.441 34.9502C249.526 32.6849 248.505 29.7979 248.569 26.8323C248.633 23.8667 249.778 21.0266 251.789 18.8461C253.8 16.6656 256.539 15.2949 259.49 14.9917C262.44 14.6885 265.4 15.4737 267.813 17.1996C270.225 18.9256 271.924 21.4734 272.59 24.3641C273.028 26.2663 272.999 28.2308 272.525 30.0949C272.114 31.7093 272.616 33.5403 274.08 34.3346Z" fill="#F5F5F5"/>
<path d="M278.436 42.46C278.436 43.9045 277.265 45.0756 275.821 45.0756C274.376 45.0756 273.205 43.9045 273.205 42.46C273.205 41.0155 274.376 39.8445 275.821 39.8445C277.265 39.8445 278.436 41.0155 278.436 42.46Z" fill="#F5F5F5"/>
<path fill-rule="evenodd" clip-rule="evenodd" d="M233.87 37.3342C234.593 38.2279 235.78 38.6747 237.432 38.6747V38.6807H237.695C239.501 38.6807 240.965 40.1448 240.965 41.951C240.965 43.7571 239.501 45.2213 237.695 45.2213H237.432V45.2227C237.357 45.2227 237.283 45.2222 237.208 45.2213H237.01V45.2176C233.732 45.1382 231.12 44.1259 229.172 42.1807C227.107 40.1527 226.074 37.0592 226.074 32.9001L226.074 0H232.786L232.786 32.9001C232.786 34.9625 233.147 36.4405 233.87 37.3342Z" fill="#F5F5F5"/>
<path d="M227.611 3.60791H239.135C240.996 3.60791 242.505 5.1166 242.505 6.97766C242.505 8.83873 240.996 10.3474 239.135 10.3474H227.611V3.60791Z" fill="#F5F5F5"/>
<path d="M206.207 30.0112C204.753 30.0112 203.314 29.7184 201.979 29.1507C200.643 28.583 199.439 27.7523 198.439 26.7094C197.44 25.6665 196.666 24.4333 196.166 23.0852C195.665 21.7371 195.448 20.3023 195.529 18.8686C195.609 17.435 195.984 16.0325 196.632 14.7469C197.279 13.4613 198.185 12.3196 199.295 11.3916C200.404 10.4635 201.694 9.7687 203.085 9.3495C204.475 8.9303 205.938 8.79555 207.383 8.95348L206.729 14.7908C206.088 14.7207 205.438 14.7805 204.821 14.9666C204.204 15.1526 203.631 15.4611 203.139 15.873C202.646 16.285 202.244 16.7918 201.956 17.3624C201.669 17.9331 201.502 18.5557 201.467 19.1921C201.431 19.8285 201.527 20.4654 201.75 21.0638C201.972 21.6623 202.315 22.2097 202.759 22.6726C203.202 23.1356 203.737 23.5043 204.33 23.7563C204.923 24.0083 205.561 24.1383 206.207 24.1383L206.207 30.0112Z" fill="#F5F5F5"/>
<path d="M209.576 24.1647C211.026 24.0669 212.482 24.2623 213.853 24.7389C215.225 25.2155 216.484 25.9633 217.553 26.9366C218.622 27.9099 219.479 29.0883 220.071 30.3996C220.663 31.711 220.978 33.1279 220.997 34.5636C221.016 35.9993 220.738 37.4238 220.181 38.75C219.624 40.0761 218.798 41.2761 217.755 42.2765C216.712 43.2769 215.473 44.0569 214.115 44.5686C212.756 45.0803 211.306 45.313 209.854 45.2526L210.104 39.3849C210.749 39.4117 211.392 39.3084 211.995 39.0812C212.598 38.8541 213.148 38.5079 213.611 38.0638C214.074 37.6197 214.441 37.087 214.688 36.4984C214.936 35.9097 215.059 35.2774 215.051 34.64C215.042 34.0027 214.902 33.3738 214.639 32.7917C214.376 32.2095 213.996 31.6865 213.522 31.2544C213.047 30.8224 212.488 30.4904 211.879 30.2789C211.271 30.0673 210.624 29.9806 209.98 30.0239L209.576 24.1647Z" fill="#F5F5F5"/>
<rect x="212.365" y="29.9077" width="8.50552" height="5.7618" rx="2.8809" transform="rotate(180 212.365 29.9077)" fill="#F5F5F5"/>
<path d="M218.27 11.852C218.27 13.488 216.944 14.8142 215.308 14.8142H207.243C205.889 14.8142 204.792 13.7166 204.792 12.3627C204.792 10.4446 206.347 8.88969 208.265 8.88969H215.308C216.944 8.88969 218.27 10.2159 218.27 11.852Z" fill="#F5F5F5"/>
<path d="M198.919 42.3629C198.919 40.7269 200.245 39.4006 201.881 39.4006H210.028C211.5 39.4006 212.694 40.5943 212.694 42.0667C212.694 43.8663 211.235 45.3251 209.435 45.3251H201.881C200.245 45.3251 198.919 43.9989 198.919 42.3629Z" fill="#F5F5F5"/>
<path d="M253.275 6.74439C253.275 3.02227 256.293 0.00488281 260.015 0.00488281H264.799C266.66 0.00488281 268.169 1.51357 268.169 3.37464C268.169 5.2357 266.66 6.74439 264.799 6.74439H253.275Z" fill="#FFB7C3"/>
</svg>
